<svg id="visual" viewBox="0 0 900 600" width="900" height="600" xmlns="http://www.w3.org/2000/svg" xmlns:xlink="http://www.w3.org/1999/xlink" version="1.1"><rect x="0" y="0" width="900" height="600" fill="#fff"></rect><defs><linearGradient id="grad1_0" x1="33.3%" y1="0%" x2="100%" y2="100%"><stop offset="20%" stop-color="#ffffff" stop-opacity="1"></stop><stop offset="80%" stop-color="#ffffff" stop-opacity="1"></stop></linearGradient></defs><defs><linearGradient id="grad2_0" x1="0%" y1="0%" x2="66.7%" y2="100%"><stop offset="20%" stop-color="#ffffff" stop-opacity="1"></stop><stop offset="80%" stop-color="#ffffff" stop-opacity="1"></stop></linearGradient></defs><g transform="translate(900, 0)"><path d="M0 486.7C-67.1 484 -134.2 481.3 -186.3 449.7C-238.4 418.1 -275.5 357.5 -305.5 305.5C-335.4 253.4 -358.1 209.8 -387.1 160.3C-416.1 110.8 -451.4 55.4 -486.7 0L0 0Z" fill="#358fcd"></path></g><g transform="translate(0, 600)"><path d="M0 -486.7C43.1 -432 86.2 -377.3 150 -362.2C213.8 -347 298.3 -371.5 344.2 -344.2C390.1 -316.9 397.5 -237.8 414.8 -171.8C432.2 -105.8 459.5 -52.9 486.7 0L0 0Z" fill="#358fcd"></path></g></svg>