<svg width="175" height="45" viewBox="0 0 175 45" fill="none" xmlns="http://www.w3.org/2000/svg">
<path d="M12.4326 7.82812H16.6494L22.8584 25.5752L29.0674 7.82812H33.2842L24.5518 32H21.165L12.4326 7.82812ZM10.1582 7.82812H14.3584L15.1221 25.127V32H10.1582V7.82812ZM31.3584 7.82812H35.5752V32H30.5947V25.127L31.3584 7.82812ZM47.9102 32.332C46.5156 32.332 45.265 32.1107 44.1582 31.668C43.0514 31.2142 42.1107 30.5889 41.3359 29.792C40.5723 28.9951 39.9857 28.071 39.5762 27.0195C39.1667 25.957 38.9619 24.8281 38.9619 23.6328V22.9688C38.9619 21.6074 39.1556 20.3623 39.543 19.2334C39.9303 18.1045 40.4837 17.125 41.2031 16.2949C41.9336 15.4648 42.819 14.8285 43.8594 14.3857C44.8997 13.932 46.0729 13.7051 47.3789 13.7051C48.6517 13.7051 49.7806 13.9154 50.7656 14.3359C51.7507 14.7565 52.5752 15.3542 53.2393 16.1289C53.9144 16.9036 54.4235 17.8333 54.7666 18.918C55.1097 19.9915 55.2812 21.1868 55.2812 22.5039V24.4961H41.0039V21.3086H50.583V20.9434C50.583 20.2793 50.4613 19.6872 50.2178 19.167C49.9854 18.6357 49.6312 18.2152 49.1553 17.9053C48.6794 17.5954 48.0706 17.4404 47.3291 17.4404C46.6982 17.4404 46.1559 17.5788 45.7021 17.8555C45.2484 18.1322 44.8776 18.5195 44.5898 19.0176C44.3132 19.5156 44.1029 20.1022 43.959 20.7773C43.8262 21.4414 43.7598 22.1719 43.7598 22.9688V23.6328C43.7598 24.3522 43.8594 25.0163 44.0586 25.625C44.2689 26.2337 44.5622 26.7594 44.9385 27.2021C45.3258 27.6449 45.7907 27.988 46.333 28.2314C46.8864 28.4749 47.5117 28.5967 48.209 28.5967C49.0723 28.5967 49.8747 28.4307 50.6162 28.0986C51.3688 27.7555 52.0163 27.2409 52.5586 26.5547L54.8828 29.0781C54.5065 29.6204 53.9919 30.1406 53.3389 30.6387C52.6969 31.1367 51.9222 31.5462 51.0146 31.8672C50.1071 32.1771 49.0723 32.332 47.9102 32.332ZM69.376 14.0371H73.709V31.4023C73.709 33.0404 73.3438 34.4294 72.6133 35.5693C71.8939 36.7204 70.8867 37.5892 69.5918 38.1758C68.2969 38.7734 66.7917 39.0723 65.0762 39.0723C64.3236 39.0723 63.5267 38.9727 62.6855 38.7734C61.8555 38.5742 61.0586 38.2643 60.2949 37.8438C59.5423 37.4232 58.9115 36.8919 58.4023 36.25L60.5107 33.4277C61.0641 34.0697 61.7061 34.5677 62.4365 34.9219C63.167 35.2871 63.9749 35.4697 64.8604 35.4697C65.7236 35.4697 66.4541 35.3092 67.0518 34.9883C67.6494 34.6784 68.1087 34.2191 68.4297 33.6104C68.7507 33.0127 68.9111 32.2878 68.9111 31.4355V18.1875L69.376 14.0371ZM57.29 23.2344V22.8857C57.29 21.5133 57.4561 20.2682 57.7881 19.1504C58.1312 18.0215 58.6126 17.0531 59.2324 16.2451C59.8633 15.4372 60.627 14.8118 61.5234 14.3691C62.4199 13.9264 63.4326 13.7051 64.5615 13.7051C65.7568 13.7051 66.7585 13.9264 67.5664 14.3691C68.3743 14.8118 69.0384 15.4427 69.5586 16.2617C70.0788 17.0697 70.4827 18.027 70.7705 19.1338C71.0693 20.2295 71.3018 21.4303 71.4678 22.7363V23.5C71.3018 24.7507 71.0527 25.9128 70.7207 26.9863C70.3887 28.0599 69.9515 29.0007 69.4092 29.8086C68.8669 30.6055 68.1917 31.2253 67.3838 31.668C66.5869 32.1107 65.6351 32.332 64.5283 32.332C63.4215 32.332 62.4199 32.1051 61.5234 31.6514C60.638 31.1976 59.8799 30.5612 59.249 29.7422C58.6182 28.9232 58.1312 27.9603 57.7881 26.8535C57.4561 25.7467 57.29 24.5404 57.29 23.2344ZM62.0713 22.8857V23.2344C62.0713 23.9759 62.1432 24.6676 62.2871 25.3096C62.431 25.9515 62.6523 26.5215 62.9512 27.0195C63.2611 27.5065 63.6429 27.8883 64.0967 28.165C64.5615 28.4307 65.1094 28.5635 65.7402 28.5635C66.6146 28.5635 67.3285 28.3809 67.8818 28.0156C68.4352 27.6393 68.8503 27.1247 69.127 26.4717C69.4036 25.8187 69.5641 25.0661 69.6084 24.2139V22.0391C69.5863 21.3418 69.4922 20.7165 69.3262 20.1631C69.1602 19.5986 68.9277 19.1172 68.6289 18.7188C68.3301 18.3203 67.9427 18.0104 67.4668 17.7891C66.9909 17.5677 66.4264 17.457 65.7734 17.457C65.1426 17.457 64.5947 17.6009 64.1299 17.8887C63.6761 18.1654 63.2943 18.5472 62.9844 19.0342C62.6855 19.5212 62.4587 20.0967 62.3037 20.7607C62.1488 21.4137 62.0713 22.1221 62.0713 22.8857ZM87.123 27.9492V19.9473C87.123 19.3717 87.029 18.8792 86.8408 18.4697C86.6527 18.0492 86.3594 17.7227 85.9609 17.4902C85.5736 17.2578 85.07 17.1416 84.4502 17.1416C83.9189 17.1416 83.4596 17.2357 83.0723 17.4238C82.6849 17.6009 82.3861 17.861 82.1758 18.2041C81.9655 18.5361 81.8604 18.929 81.8604 19.3828H77.0791C77.0791 18.6191 77.2562 17.8942 77.6104 17.208C77.9645 16.5218 78.4792 15.9186 79.1543 15.3984C79.8294 14.8672 80.6318 14.4521 81.5615 14.1533C82.5023 13.8545 83.5537 13.7051 84.7158 13.7051C86.1104 13.7051 87.3499 13.9375 88.4346 14.4023C89.5192 14.8672 90.3714 15.5645 90.9912 16.4941C91.6221 17.4238 91.9375 18.5859 91.9375 19.9805V27.667C91.9375 28.652 91.9984 29.46 92.1201 30.0908C92.2419 30.7106 92.4189 31.2529 92.6514 31.7178V32H87.8203C87.5879 31.513 87.4108 30.9043 87.2891 30.1738C87.1784 29.4323 87.123 28.6908 87.123 27.9492ZM87.7539 21.0596L87.7871 23.7656H85.1143C84.4834 23.7656 83.9355 23.8376 83.4707 23.9814C83.0059 24.1253 82.624 24.3301 82.3252 24.5957C82.0264 24.8503 81.805 25.1491 81.6611 25.4922C81.5283 25.8353 81.4619 26.2116 81.4619 26.6211C81.4619 27.0306 81.556 27.4014 81.7441 27.7334C81.9323 28.0544 82.2035 28.3089 82.5576 28.4971C82.9118 28.6742 83.3268 28.7627 83.8027 28.7627C84.5221 28.7627 85.1475 28.6188 85.6787 28.3311C86.21 28.0433 86.6195 27.6891 86.9072 27.2686C87.2061 26.848 87.361 26.4495 87.3721 26.0732L88.6338 28.0986C88.4567 28.5524 88.2132 29.0228 87.9033 29.5098C87.6045 29.9967 87.2227 30.4561 86.7578 30.8877C86.293 31.3083 85.734 31.6569 85.0811 31.9336C84.4281 32.1992 83.6533 32.332 82.7568 32.332C81.6169 32.332 80.582 32.1051 79.6523 31.6514C78.7337 31.1865 78.0033 30.5501 77.4609 29.7422C76.9297 28.9232 76.6641 27.9935 76.6641 26.9531C76.6641 26.0124 76.8411 25.1768 77.1953 24.4463C77.5495 23.7158 78.0697 23.1016 78.7559 22.6035C79.4531 22.0944 80.3219 21.7126 81.3623 21.458C82.4027 21.1924 83.609 21.0596 84.9814 21.0596H87.7539ZM98.1963 7.82812H102.413L108.622 25.5752L114.831 7.82812H119.048L110.315 32H106.929L98.1963 7.82812ZM95.9219 7.82812H100.122L100.886 25.127V32H95.9219V7.82812ZM117.122 7.82812H121.339V32H116.358V25.127L117.122 7.82812ZM135.102 27.9492V19.9473C135.102 19.3717 135.007 18.8792 134.819 18.4697C134.631 18.0492 134.338 17.7227 133.939 17.4902C133.552 17.2578 133.049 17.1416 132.429 17.1416C131.897 17.1416 131.438 17.2357 131.051 17.4238C130.663 17.6009 130.365 17.861 130.154 18.2041C129.944 18.5361 129.839 18.929 129.839 19.3828H125.058C125.058 18.6191 125.235 17.8942 125.589 17.208C125.943 16.5218 126.458 15.9186 127.133 15.3984C127.808 14.8672 128.61 14.4521 129.54 14.1533C130.481 13.8545 131.532 13.7051 132.694 13.7051C134.089 13.7051 135.328 13.9375 136.413 14.4023C137.498 14.8672 138.35 15.5645 138.97 16.4941C139.601 17.4238 139.916 18.5859 139.916 19.9805V27.667C139.916 28.652 139.977 29.46 140.099 30.0908C140.22 30.7106 140.397 31.2529 140.63 31.7178V32H135.799C135.566 31.513 135.389 30.9043 135.268 30.1738C135.157 29.4323 135.102 28.6908 135.102 27.9492ZM135.732 21.0596L135.766 23.7656H133.093C132.462 23.7656 131.914 23.8376 131.449 23.9814C130.984 24.1253 130.603 24.3301 130.304 24.5957C130.005 24.8503 129.784 25.1491 129.64 25.4922C129.507 25.8353 129.44 26.2116 129.44 26.6211C129.44 27.0306 129.535 27.4014 129.723 27.7334C129.911 28.0544 130.182 28.3089 130.536 28.4971C130.89 28.6742 131.305 28.7627 131.781 28.7627C132.501 28.7627 133.126 28.6188 133.657 28.3311C134.188 28.0433 134.598 27.6891 134.886 27.2686C135.185 26.848 135.34 26.4495 135.351 26.0732L136.612 28.0986C136.435 28.5524 136.192 29.0228 135.882 29.5098C135.583 29.9967 135.201 30.4561 134.736 30.8877C134.271 31.3083 133.713 31.6569 133.06 31.9336C132.407 32.1992 131.632 32.332 130.735 32.332C129.595 32.332 128.561 32.1051 127.631 31.6514C126.712 31.1865 125.982 30.5501 125.439 29.7422C124.908 28.9232 124.643 27.9935 124.643 26.9531C124.643 26.0124 124.82 25.1768 125.174 24.4463C125.528 23.7158 126.048 23.1016 126.734 22.6035C127.432 22.0944 128.3 21.7126 129.341 21.458C130.381 21.1924 131.588 21.0596 132.96 21.0596H135.732ZM148.383 17.9551V32H143.602V14.0371H148.101L148.383 17.9551ZM153.795 13.9209L153.712 18.3535C153.479 18.3203 153.197 18.2926 152.865 18.2705C152.544 18.2373 152.251 18.2207 151.985 18.2207C151.31 18.2207 150.724 18.3092 150.226 18.4863C149.739 18.6523 149.329 18.9014 148.997 19.2334C148.676 19.5654 148.433 19.9694 148.267 20.4453C148.112 20.9212 148.023 21.4635 148.001 22.0723L147.038 21.7734C147.038 20.6113 147.154 19.5433 147.387 18.5693C147.619 17.5843 147.957 16.7266 148.399 15.9961C148.853 15.2656 149.407 14.7012 150.06 14.3027C150.713 13.9043 151.46 13.7051 152.301 13.7051C152.566 13.7051 152.838 13.7272 153.114 13.7715C153.391 13.8047 153.618 13.8545 153.795 13.9209ZM165.682 14.0371V17.4238H155.223V14.0371H165.682ZM157.812 9.60449H162.594V26.5879C162.594 27.1081 162.66 27.5065 162.793 27.7832C162.937 28.0599 163.147 28.2536 163.424 28.3643C163.701 28.4639 164.049 28.5137 164.47 28.5137C164.769 28.5137 165.034 28.5026 165.267 28.4805C165.51 28.4473 165.715 28.4141 165.881 28.3809L165.897 31.9004C165.488 32.0332 165.045 32.1383 164.569 32.2158C164.093 32.2933 163.568 32.332 162.992 32.332C161.941 32.332 161.022 32.1605 160.236 31.8174C159.462 31.4632 158.864 30.8988 158.443 30.124C158.023 29.3493 157.812 28.3311 157.812 27.0693V9.60449Z" fill="#008ECC"/>
</svg>
